<svg preserveAspectRatio="none" overflow="visible" style="display: block;" width="7.88501" height="5.02112" viewBox="0 0 7.88501 5.02112" fill="none" xmlns="http://www.w3.org/2000/svg">
<path id="Cellular Connection" fill-rule="evenodd" clip-rule="evenodd" d="M7.88501 0.470729C7.88501 0.210753 7.68889 0 7.44695 0H7.0089C6.76697 0 6.57084 0.210753 6.57084 0.470729V4.55039C6.57084 4.81036 6.76697 5.02111 7.0089 5.02111H7.44695C7.68889 5.02111 7.88501 4.81036 7.88501 4.55039V0.470729ZM4.83199 1.00422H5.27004C5.51197 1.00422 5.7081 1.22003 5.7081 1.48625V4.53909C5.7081 4.8053 5.51197 5.02111 5.27004 5.02111H4.83199C4.59005 5.02111 4.39393 4.8053 4.39393 4.53909V1.48625C4.39393 1.22003 4.59005 1.00422 4.83199 1.00422ZM3.05302 2.09213H2.61497C2.37304 2.09213 2.17691 2.31069 2.17691 2.58029V4.53295C2.17691 4.80255 2.37304 5.02111 2.61497 5.02111H3.05302C3.29496 5.02111 3.49108 4.80255 3.49108 4.53295V2.58029C3.49108 2.31069 3.29496 2.09213 3.05302 2.09213ZM0.876112 3.09635H0.438056C0.196124 3.09635 0 3.31179 0 3.57754V4.53993C0 4.80568 0.196124 5.02112 0.438056 5.02112H0.876112C1.11804 5.02112 1.31417 4.80568 1.31417 4.53993V3.57754C1.31417 3.31179 1.11804 3.09635 0.876112 3.09635Z" fill="black"/>
</svg>
