<svg preserveAspectRatio="none" overflow="visible" style="display: block;" width="18.3779" height="17.459" viewBox="0 0 18.3779 17.459" fill="none" xmlns="http://www.w3.org/2000/svg">
<g id="Add Icon 1">
<path id="Vector" d="M6.12597 7.88719C5.66077 7.88719 5.28365 8.26431 5.28365 8.72951C5.28365 9.19471 5.66077 9.57183 6.12597 9.57183V8.72951V7.88719ZM12.2519 9.57183C12.7171 9.57183 13.0943 9.19471 13.0943 8.72951C13.0943 8.26431 12.7171 7.88719 12.2519 7.88719V8.72951V9.57183ZM8.34664 11.6394C8.34664 12.1046 8.72376 12.4817 9.18896 12.4817C9.65416 12.4817 10.0313 12.1046 10.0313 11.6394H9.18896H8.34664ZM10.0313 5.81968C10.0313 5.35447 9.65416 4.97735 9.18896 4.97735C8.72376 4.97735 8.34664 5.35447 8.34664 5.81968H9.18896H10.0313ZM9.18896 15.2766V14.4343C5.80674 14.4343 3.13956 11.84 3.13956 8.72951H2.29724H1.45492C1.45492 12.8508 4.9588 16.119 9.18896 16.119V15.2766ZM2.29724 8.72951H3.13956C3.13956 5.61902 5.80674 3.0247 9.18896 3.0247V2.18238V1.34006C4.9588 1.34006 1.45492 4.60824 1.45492 8.72951H2.29724ZM9.18896 2.18238V3.0247C12.5712 3.0247 15.2384 5.61902 15.2384 8.72951H16.0807H16.923C16.923 4.60824 13.4191 1.34006 9.18896 1.34006V2.18238ZM16.0807 8.72951H15.2384C15.2384 11.84 12.5712 14.4343 9.18896 14.4343V15.2766V16.119C13.4191 16.119 16.923 12.8508 16.923 8.72951H16.0807ZM6.12597 8.72951V9.57183H12.2519V8.72951V7.88719H6.12597V8.72951ZM9.18896 11.6394H10.0313V5.81968H9.18896H8.34664V11.6394H9.18896Z" fill="#858585"/>
</g>
</svg>
